<svg width="602" height="165" viewBox="0 0 602 165" fill="none" xmlns="http://www.w3.org/2000/svg">
<path d="M50 32C50 57 25 82 0 82V32H50Z" fill="#965EC0"/>
<path d="M50 82C75 82 100 107 100 132H50V82Z" fill="#965EC0"/>
<path d="M50 82C50 107 25 132 0 132V82H50Z" fill="#449CB5"/>
<path d="M50 32C75 32 100 57 100 82H50V32Z" fill="#449CB5"/>
<path d="M233.037 33.0909V132H217.099L170.494 64.6278H169.673V132H151.756V33.0909H167.79L214.347 100.511H215.216V33.0909H233.037ZM284.146 133.449C276.901 133.449 270.623 131.855 265.31 128.668C259.998 125.48 255.877 121.021 252.947 115.29C250.049 109.559 248.6 102.862 248.6 95.1989C248.6 87.536 250.049 80.8229 252.947 75.0597C255.877 69.2964 259.998 64.821 265.31 61.6335C270.623 58.446 276.901 56.8523 284.146 56.8523C291.39 56.8523 297.668 58.446 302.981 61.6335C308.293 64.821 312.398 69.2964 315.296 75.0597C318.226 80.8229 319.691 87.536 319.691 95.1989C319.691 102.862 318.226 109.559 315.296 115.29C312.398 121.021 308.293 125.48 302.981 128.668C297.668 131.855 291.39 133.449 284.146 133.449ZM284.242 119.443C288.17 119.443 291.454 118.365 294.094 116.207C296.735 114.018 298.699 111.088 299.987 107.418C301.307 103.747 301.967 99.6581 301.967 95.1506C301.967 90.6108 301.307 86.5057 299.987 82.8352C298.699 79.1326 296.735 76.1866 294.094 73.9972C291.454 71.8078 288.17 70.7131 284.242 70.7131C280.218 70.7131 276.869 71.8078 274.197 73.9972C271.557 76.1866 269.576 79.1326 268.256 82.8352C266.969 86.5057 266.325 90.6108 266.325 95.1506C266.325 99.6581 266.969 103.747 268.256 107.418C269.576 111.088 271.557 114.018 274.197 116.207C276.869 118.365 280.218 119.443 284.242 119.443ZM381.811 100.801V57.8182H399.294V132H382.342V118.815H381.57C379.895 122.969 377.143 126.366 373.311 129.006C369.512 131.646 364.827 132.966 359.257 132.966C354.395 132.966 350.097 131.887 346.362 129.73C342.66 127.541 339.762 124.369 337.669 120.216C335.576 116.03 334.53 110.975 334.53 105.051V57.8182H352.013V102.347C352.013 107.047 353.301 110.782 355.876 113.551C358.452 116.32 361.833 117.705 366.018 117.705C368.594 117.705 371.089 117.077 373.504 115.821C375.919 114.565 377.899 112.698 379.445 110.219C381.022 107.707 381.811 104.568 381.811 100.801ZM475.903 77.4261L459.965 79.1648C459.514 77.5549 458.726 76.0417 457.599 74.625C456.504 73.2083 455.023 72.0653 453.156 71.196C451.288 70.3267 449.002 69.892 446.298 69.892C442.659 69.892 439.601 70.6809 437.121 72.2585C434.674 73.8362 433.467 75.8807 433.499 78.392C433.467 80.5492 434.256 82.304 435.866 83.6562C437.508 85.0085 440.212 86.1193 443.979 86.9886L456.633 89.6932C463.652 91.2064 468.868 93.6051 472.281 96.8892C475.726 100.173 477.464 104.472 477.496 109.784C477.464 114.453 476.096 118.574 473.391 122.148C470.719 125.689 467 128.458 462.235 130.455C457.47 132.451 451.996 133.449 445.815 133.449C436.735 133.449 429.426 131.549 423.888 127.75C418.351 123.919 415.05 118.59 413.988 111.764L431.036 110.122C431.809 113.471 433.451 115.998 435.962 117.705C438.474 119.411 441.742 120.264 445.766 120.264C449.92 120.264 453.252 119.411 455.763 117.705C458.307 115.998 459.579 113.889 459.579 111.378C459.579 109.253 458.758 107.498 457.116 106.114C455.506 104.729 452.995 103.667 449.582 102.926L436.928 100.27C429.813 98.7888 424.549 96.2936 421.136 92.7841C417.723 89.2424 416.032 84.767 416.065 79.358C416.032 74.786 417.272 70.8258 419.783 67.4773C422.327 64.0966 425.853 61.4886 430.36 59.6534C434.9 57.786 440.132 56.8523 446.056 56.8523C454.749 56.8523 461.591 58.7036 466.582 62.4062C471.604 66.1089 474.711 71.1155 475.903 77.4261ZM509.396 88.5341V132H491.913V33.0909H509.009V70.4233H509.879C511.617 66.2377 514.306 62.9375 517.944 60.5227C521.614 58.0758 526.283 56.8523 531.95 56.8523C537.101 56.8523 541.593 57.9309 545.424 60.0881C549.255 62.2453 552.218 65.4006 554.31 69.554C556.435 73.7074 557.498 78.7784 557.498 84.767V132H540.015V87.4716C540.015 82.4811 538.727 78.6013 536.151 75.8324C533.608 73.0312 530.034 71.6307 525.43 71.6307C522.339 71.6307 519.57 72.3068 517.123 73.6591C514.708 74.9792 512.808 76.8949 511.424 79.4062C510.072 81.9176 509.396 84.9602 509.396 88.5341ZM575.319 132V57.8182H592.802V132H575.319ZM584.109 47.2898C581.34 47.2898 578.957 46.3722 576.961 44.5369C574.965 42.6695 573.967 40.4318 573.967 37.8239C573.967 35.1837 574.965 32.946 576.961 31.1108C578.957 29.2434 581.34 28.3097 584.109 28.3097C586.91 28.3097 589.292 29.2434 591.256 31.1108C593.253 32.946 594.251 35.1837 594.251 37.8239C594.251 40.4318 593.253 42.6695 591.256 44.5369C589.292 46.3722 586.91 47.2898 584.109 47.2898Z" fill="white"/>
</svg>
